name C:\Users\u0101727\Documents\MyRepositories\upper-imu-dc\Results\main_tracking\Case_62\kinematics.mot
datacolumns 10
datarows 37
range 0.70000000 1.06000000
endheader 
time	clav_prot	clav_elev	scapula_abduction	scapula_elevation	scapula_upward_rot	scapula_winging	plane_elv	shoulder_elv	axial_rot	
          0.70000000	        -22.87027163	          0.53984629	        -23.58884105	          5.72411010	         -6.70432122	          9.86098035	         50.79845758	         27.69302538	         27.89808631	
          0.71000000	        -22.94281057	          0.90092789	        -23.55661547	          5.76409551	         -5.85510515	          9.63679155	         51.02246287	         27.55088769	         26.98661807	
          0.72000000	        -22.88625803	          1.28545303	        -23.30673476	          5.78952229	         -5.00117844	          9.40841440	         51.24599233	         27.41872911	         26.07387343	
          0.73000000	        -22.83462203	          1.65020243	        -23.04975225	          5.79847780	         -4.14491336	          9.17629981	         51.46894349	         27.29957216	         25.15792304	
          0.74000000	        -22.78837369	          1.99644599	        -22.78698839	          5.79264584	         -3.28801032	          8.94065821	         51.69164631	         27.19537241	         24.23881970	
          0.75000000	        -22.74309401	          2.32518245	        -22.51119790	          5.77376751	         -2.43207680	          8.70182457	         51.91412369	         27.10775564	         23.31776943	
          0.76000000	        -22.71177276	          2.63895174	        -22.24647241	          5.74366955	         -1.57866217	          8.46012298	         52.13642008	         27.03803500	         22.39663765	
          0.77000000	        -22.64772332	          2.93566822	        -21.91010422	          5.70422384	         -0.72910769	          8.21622863	         52.35837588	         26.98719028	         21.47762193	
          0.78000000	        -22.67338030	          3.22667601	        -21.72300471	          5.65730444	          0.11488029	          7.97014295	         52.58029600	         26.95625972	         20.56306939	
          0.79000000	        -22.51998211	          3.49287233	        -21.20360852	          5.60516749	          0.95256838	          7.72348480	         52.80163104	         26.94561990	         19.65504731	
          0.80000000	        -22.91872845	          3.79645687	        -21.67063572	          5.55189150	          1.77995210	          7.47283705	         53.02547656	         26.95816012	         18.75628822	
          0.81000000	        -22.47946188	          4.03247445	        -20.62234360	          5.50093383	          2.60376625	          7.22825919	         53.24636122	         26.98822507	         17.86797397	
          0.82000000	        -22.46019117	          4.29441488	        -20.32152513	          5.44716778	          3.42048260	          6.97949233	         53.47186226	         27.03244793	         16.99472072	
          0.83000000	        -22.42538805	          4.54541764	        -19.98313440	          5.38909728	          4.23060254	          6.73019141	         53.70503930	         27.09238070	         16.14001246	
          0.84000000	        -22.39491801	          4.78901138	        -19.64379938	          5.32817046	          5.03457568	          6.48042546	         53.94661005	         27.16823288	         15.30377131	
          0.85000000	        -22.36370688	          5.02558216	        -19.29548716	          5.26546886	          5.83110713	          6.23083258	         54.19569715	         27.26115762	         14.48577554	
          0.86000000	        -22.33303526	          5.25590577	        -18.94153742	          5.20187565	          6.61918419	          5.98195875	         54.45139174	         27.37210389	         13.68459409	
          0.87000000	        -22.30308184	          5.48037753	        -18.58326355	          5.13805305	          7.39771732	          5.73437093	         54.71262525	         27.50214196	         12.89798986	
          0.88000000	        -22.27417057	          5.69917367	        -18.22219309	          5.07446814	          8.16561591	          5.48862907	         54.97822353	         27.65236735	         12.12295122	
          0.89000000	        -22.24663871	          5.91225457	        -17.85983630	          5.01140968	          8.92177249	          5.24528812	         55.24692691	         27.82389555	         11.35580998	
          0.90000000	        -22.22079671	          6.11939318	        -17.49761445	          4.94900965	          9.66507650	          5.00489172	         55.51740455	         28.01783628	         10.59236740	
          0.91000000	        -22.19691145	          6.32021113	        -17.13682889	          4.88726702	         10.39443564	          4.76796400	         55.78826199	         28.23527125	          9.82805462	
          0.92000000	        -22.17517350	          6.51422537	        -16.77859798	          4.82607642	         11.10881159	          4.53499765	         56.05804555	         28.47722994	          9.05812575	
          0.93000000	        -22.15567769	          6.70090653	        -16.42381516	          4.76526175	         11.80726781	          4.30643892	         56.32524410	         28.74466612	          8.27788194	
          0.94000000	        -22.13840587	          6.87974313	        -16.07310607	          4.70461124	         12.48902778	          4.08266978	         56.58828896	         29.03843573	          7.48291749	
          0.95000000	        -22.12322414	          7.05031156	        -15.72681034	          4.64391551	         13.15353693	          3.86398971	         56.84555613	         29.35927505	          6.66937936	
          0.96000000	        -22.10982452	          7.21234777	        -15.38486679	          4.58301257	         13.80051804	          3.65060053	         57.09537474	         29.70777215	          5.83422560	
          0.97000000	        -22.09790043	          7.36583167	        -15.04713314	          4.52183280	         14.43001139	          3.44259679	         57.33605571	         30.08432086	          4.97546247	
          0.98000000	        -22.08647916	          7.51101541	        -14.71219544	          4.46046735	         15.04236226	          3.23997467	         57.56590773	         30.48908439	          4.09234773	
          0.99000000	        -22.07671262	          7.64860440	        -14.38242728	          4.39912021	         15.63828591	          3.04260920	         57.78334078	         30.92182577	          3.18545137	
          1.00000000	        -22.05864568	          7.77961105	        -14.04033423	          4.33891469	         16.21846797	          2.85043690	         57.98726833	         31.38236304	          2.25701783	
          1.01000000	        -22.14589020	          7.91865995	        -13.89593737	          4.28298831	         16.78663170	          2.66246657	         58.17472869	         31.86695408	          1.31019049	
          1.02000000	        -22.03567960	          8.03638728	        -13.38500248	          4.22570063	         17.34880417	          2.47667847	         58.35192273	         32.36792918	          0.35107575	
          1.03000000	        -22.04046634	          8.15178575	        -13.08059152	          4.16253628	         17.90492076	          2.29252540	         58.52297729	         32.88572593	         -0.61196552	
          1.04000000	        -22.03829325	          8.25760634	        -12.75772581	          4.09477961	         18.45732014	          2.10951569	         58.68721940	         33.41783266	         -1.57277644	
          1.05000000	        -22.03431493	          8.35654443	        -12.42661382	          4.02397621	         19.00679843	          1.92758821	         58.84389845	         33.96265796	         -2.52384808	
          1.06000000	        -22.02833596	          8.45086149	        -12.08744389	          3.95161121	         19.55434059	          1.74660570	         58.99254408	         34.51819408	         -3.45781131	
